<mxfile host="app.diagrams.net" modified="2023-07-12T01:12:35.922Z" agent="Mozilla/5.0 (Windows NT 10.0; Win64; x64) AppleWebKit/537.36 (KHTML, like Gecko) Chrome/113.0.0.0 Safari/537.36 OPR/99.0.0.0" etag="gXN9O3Llkkzd8QOZ9-oD" version="21.6.2" type="github">
  <diagram name="Página-1" id="GQxNW1TLRfDye9IzBiDt">
    <mxGraphModel dx="880" dy="1654" grid="1" gridSize="10" guides="1" tooltips="1" connect="1" arrows="1" fold="1" page="1" pageScale="1" pageWidth="827" pageHeight="1169" math="0" shadow="0">
      <root>
        <mxCell id="0" />
        <mxCell id="1" parent="0" />
        <mxCell id="CzDlGQZeDKel1ql23Tl0-9" style="edgeStyle=orthogonalEdgeStyle;rounded=0;orthogonalLoop=1;jettySize=auto;html=1;exitX=1;exitY=0.5;exitDx=0;exitDy=0;entryX=0;entryY=0.5;entryDx=0;entryDy=0;entryPerimeter=0;" edge="1" parent="1" source="CzDlGQZeDKel1ql23Tl0-1" target="CzDlGQZeDKel1ql23Tl0-3">
          <mxGeometry relative="1" as="geometry" />
        </mxCell>
        <mxCell id="CzDlGQZeDKel1ql23Tl0-1" value="Início" style="ellipse;whiteSpace=wrap;html=1;" vertex="1" parent="1">
          <mxGeometry x="160" y="15" width="100" height="30" as="geometry" />
        </mxCell>
        <mxCell id="CzDlGQZeDKel1ql23Tl0-2" value="Fim" style="ellipse;whiteSpace=wrap;html=1;" vertex="1" parent="1">
          <mxGeometry x="500" y="490" width="80" height="30" as="geometry" />
        </mxCell>
        <mxCell id="CzDlGQZeDKel1ql23Tl0-8" style="edgeStyle=orthogonalEdgeStyle;rounded=0;orthogonalLoop=1;jettySize=auto;html=1;exitX=0.5;exitY=1;exitDx=0;exitDy=0;exitPerimeter=0;entryX=0.5;entryY=0;entryDx=0;entryDy=0;" edge="1" parent="1" source="CzDlGQZeDKel1ql23Tl0-3" target="CzDlGQZeDKel1ql23Tl0-41">
          <mxGeometry relative="1" as="geometry" />
        </mxCell>
        <mxCell id="CzDlGQZeDKel1ql23Tl0-3" value="Informe o saldo inicial da peça" style="strokeWidth=2;html=1;shape=mxgraph.flowchart.display;whiteSpace=wrap;" vertex="1" parent="1">
          <mxGeometry x="310" width="100" height="60" as="geometry" />
        </mxCell>
        <mxCell id="CzDlGQZeDKel1ql23Tl0-11" style="edgeStyle=orthogonalEdgeStyle;rounded=0;orthogonalLoop=1;jettySize=auto;html=1;exitX=0.5;exitY=1;exitDx=0;exitDy=0;exitPerimeter=0;entryX=0.5;entryY=0;entryDx=0;entryDy=0;entryPerimeter=0;" edge="1" parent="1" source="CzDlGQZeDKel1ql23Tl0-7" target="CzDlGQZeDKel1ql23Tl0-10">
          <mxGeometry relative="1" as="geometry" />
        </mxCell>
        <mxCell id="CzDlGQZeDKel1ql23Tl0-7" value="&lt;div&gt;Que deseja?&lt;/div&gt;&lt;div&gt;1 - compra,&lt;/div&gt;&lt;div&gt;2 - venda ?&lt;/div&gt;" style="strokeWidth=2;html=1;shape=mxgraph.flowchart.display;whiteSpace=wrap;" vertex="1" parent="1">
          <mxGeometry x="160" y="80" width="100" height="60" as="geometry" />
        </mxCell>
        <mxCell id="CzDlGQZeDKel1ql23Tl0-14" style="edgeStyle=orthogonalEdgeStyle;rounded=0;orthogonalLoop=1;jettySize=auto;html=1;exitX=0.5;exitY=1;exitDx=0;exitDy=0;exitPerimeter=0;entryX=0.5;entryY=0;entryDx=0;entryDy=0;" edge="1" parent="1" source="CzDlGQZeDKel1ql23Tl0-10" target="CzDlGQZeDKel1ql23Tl0-13">
          <mxGeometry relative="1" as="geometry" />
        </mxCell>
        <mxCell id="CzDlGQZeDKel1ql23Tl0-16" value="&lt;font style=&quot;font-size: 20px;&quot;&gt;1&lt;/font&gt;" style="edgeLabel;html=1;align=center;verticalAlign=middle;resizable=0;points=[];" vertex="1" connectable="0" parent="CzDlGQZeDKel1ql23Tl0-14">
          <mxGeometry x="-0.2571" y="1" relative="1" as="geometry">
            <mxPoint x="-31" y="-5" as="offset" />
          </mxGeometry>
        </mxCell>
        <mxCell id="CzDlGQZeDKel1ql23Tl0-15" style="edgeStyle=orthogonalEdgeStyle;rounded=0;orthogonalLoop=1;jettySize=auto;html=1;exitX=1;exitY=0.5;exitDx=0;exitDy=0;exitPerimeter=0;entryX=0;entryY=0.5;entryDx=0;entryDy=0;entryPerimeter=0;" edge="1" parent="1" source="CzDlGQZeDKel1ql23Tl0-10" target="CzDlGQZeDKel1ql23Tl0-18">
          <mxGeometry relative="1" as="geometry" />
        </mxCell>
        <mxCell id="CzDlGQZeDKel1ql23Tl0-17" value="&lt;font style=&quot;font-size: 20px;&quot;&gt;2&lt;/font&gt;" style="edgeLabel;html=1;align=center;verticalAlign=middle;resizable=0;points=[];" vertex="1" connectable="0" parent="CzDlGQZeDKel1ql23Tl0-15">
          <mxGeometry x="-0.3143" y="-1" relative="1" as="geometry">
            <mxPoint x="-11" y="-21" as="offset" />
          </mxGeometry>
        </mxCell>
        <mxCell id="CzDlGQZeDKel1ql23Tl0-10" value="opção" style="strokeWidth=2;html=1;shape=mxgraph.flowchart.decision;whiteSpace=wrap;" vertex="1" parent="1">
          <mxGeometry x="180" y="160" width="60" height="60" as="geometry" />
        </mxCell>
        <mxCell id="CzDlGQZeDKel1ql23Tl0-22" style="edgeStyle=orthogonalEdgeStyle;rounded=0;orthogonalLoop=1;jettySize=auto;html=1;exitX=0.5;exitY=1;exitDx=0;exitDy=0;entryX=0.5;entryY=0;entryDx=0;entryDy=0;entryPerimeter=0;" edge="1" parent="1" source="CzDlGQZeDKel1ql23Tl0-12" target="CzDlGQZeDKel1ql23Tl0-21">
          <mxGeometry relative="1" as="geometry" />
        </mxCell>
        <mxCell id="CzDlGQZeDKel1ql23Tl0-12" value="Subtrair do saldo" style="rounded=1;whiteSpace=wrap;html=1;absoluteArcSize=1;arcSize=14;strokeWidth=2;" vertex="1" parent="1">
          <mxGeometry x="305" y="260" width="100" height="40" as="geometry" />
        </mxCell>
        <mxCell id="CzDlGQZeDKel1ql23Tl0-23" style="edgeStyle=orthogonalEdgeStyle;rounded=0;orthogonalLoop=1;jettySize=auto;html=1;exitX=0.5;exitY=1;exitDx=0;exitDy=0;entryX=0.5;entryY=0;entryDx=0;entryDy=0;entryPerimeter=0;" edge="1" parent="1" source="CzDlGQZeDKel1ql23Tl0-13" target="CzDlGQZeDKel1ql23Tl0-21">
          <mxGeometry relative="1" as="geometry" />
        </mxCell>
        <mxCell id="CzDlGQZeDKel1ql23Tl0-13" value="Somar ao saldo" style="rounded=1;whiteSpace=wrap;html=1;absoluteArcSize=1;arcSize=14;strokeWidth=2;" vertex="1" parent="1">
          <mxGeometry x="160" y="260" width="100" height="40" as="geometry" />
        </mxCell>
        <mxCell id="CzDlGQZeDKel1ql23Tl0-19" style="edgeStyle=orthogonalEdgeStyle;rounded=0;orthogonalLoop=1;jettySize=auto;html=1;exitX=0.5;exitY=1;exitDx=0;exitDy=0;exitPerimeter=0;entryX=0.5;entryY=0;entryDx=0;entryDy=0;" edge="1" parent="1" source="CzDlGQZeDKel1ql23Tl0-18" target="CzDlGQZeDKel1ql23Tl0-12">
          <mxGeometry relative="1" as="geometry" />
        </mxCell>
        <mxCell id="CzDlGQZeDKel1ql23Tl0-20" value="SIM" style="edgeLabel;html=1;align=center;verticalAlign=middle;resizable=0;points=[];" vertex="1" connectable="0" parent="CzDlGQZeDKel1ql23Tl0-19">
          <mxGeometry x="-0.3778" y="1" relative="1" as="geometry">
            <mxPoint x="14" as="offset" />
          </mxGeometry>
        </mxCell>
        <mxCell id="CzDlGQZeDKel1ql23Tl0-25" style="edgeStyle=orthogonalEdgeStyle;rounded=0;orthogonalLoop=1;jettySize=auto;html=1;exitX=1;exitY=0.5;exitDx=0;exitDy=0;exitPerimeter=0;entryX=0;entryY=0.5;entryDx=0;entryDy=0;entryPerimeter=0;" edge="1" parent="1" source="CzDlGQZeDKel1ql23Tl0-18" target="CzDlGQZeDKel1ql23Tl0-24">
          <mxGeometry relative="1" as="geometry" />
        </mxCell>
        <mxCell id="CzDlGQZeDKel1ql23Tl0-26" value="NÃO" style="edgeLabel;html=1;align=center;verticalAlign=middle;resizable=0;points=[];" vertex="1" connectable="0" parent="CzDlGQZeDKel1ql23Tl0-25">
          <mxGeometry x="-0.1083" y="2" relative="1" as="geometry">
            <mxPoint y="-8" as="offset" />
          </mxGeometry>
        </mxCell>
        <mxCell id="CzDlGQZeDKel1ql23Tl0-18" value="se quantidade&lt;br&gt;de peças &amp;gt;0" style="strokeWidth=2;html=1;shape=mxgraph.flowchart.decision;whiteSpace=wrap;" vertex="1" parent="1">
          <mxGeometry x="300" y="150" width="110" height="80" as="geometry" />
        </mxCell>
        <mxCell id="CzDlGQZeDKel1ql23Tl0-33" style="edgeStyle=orthogonalEdgeStyle;rounded=0;orthogonalLoop=1;jettySize=auto;html=1;exitX=0.5;exitY=1;exitDx=0;exitDy=0;exitPerimeter=0;entryX=0.5;entryY=0;entryDx=0;entryDy=0;entryPerimeter=0;" edge="1" parent="1" source="CzDlGQZeDKel1ql23Tl0-21" target="CzDlGQZeDKel1ql23Tl0-32">
          <mxGeometry relative="1" as="geometry" />
        </mxCell>
        <mxCell id="CzDlGQZeDKel1ql23Tl0-21" value="Exibir saldo" style="strokeWidth=2;html=1;shape=mxgraph.flowchart.display;whiteSpace=wrap;" vertex="1" parent="1">
          <mxGeometry x="230" y="350" width="100" height="30" as="geometry" />
        </mxCell>
        <mxCell id="CzDlGQZeDKel1ql23Tl0-43" style="edgeStyle=orthogonalEdgeStyle;rounded=0;orthogonalLoop=1;jettySize=auto;html=1;exitX=0.5;exitY=1;exitDx=0;exitDy=0;exitPerimeter=0;entryX=1;entryY=0.5;entryDx=0;entryDy=0;entryPerimeter=0;" edge="1" parent="1" source="CzDlGQZeDKel1ql23Tl0-24" target="CzDlGQZeDKel1ql23Tl0-21">
          <mxGeometry relative="1" as="geometry" />
        </mxCell>
        <mxCell id="CzDlGQZeDKel1ql23Tl0-24" value="Saldo insuficiente" style="strokeWidth=2;html=1;shape=mxgraph.flowchart.display;whiteSpace=wrap;" vertex="1" parent="1">
          <mxGeometry x="460" y="165" width="90" height="50" as="geometry" />
        </mxCell>
        <mxCell id="CzDlGQZeDKel1ql23Tl0-35" style="edgeStyle=orthogonalEdgeStyle;rounded=0;orthogonalLoop=1;jettySize=auto;html=1;exitX=0;exitY=0.5;exitDx=0;exitDy=0;exitPerimeter=0;entryX=0;entryY=0.5;entryDx=0;entryDy=0;entryPerimeter=0;" edge="1" parent="1" source="CzDlGQZeDKel1ql23Tl0-31" target="CzDlGQZeDKel1ql23Tl0-7">
          <mxGeometry relative="1" as="geometry">
            <Array as="points">
              <mxPoint x="100" y="505" />
              <mxPoint x="100" y="110" />
            </Array>
          </mxGeometry>
        </mxCell>
        <mxCell id="CzDlGQZeDKel1ql23Tl0-37" value="&lt;font style=&quot;font-size: 20px;&quot;&gt;S&lt;/font&gt;" style="edgeLabel;html=1;align=center;verticalAlign=middle;resizable=0;points=[];" vertex="1" connectable="0" parent="CzDlGQZeDKel1ql23Tl0-35">
          <mxGeometry x="-0.8504" relative="1" as="geometry">
            <mxPoint x="1" as="offset" />
          </mxGeometry>
        </mxCell>
        <mxCell id="CzDlGQZeDKel1ql23Tl0-36" style="edgeStyle=orthogonalEdgeStyle;rounded=0;orthogonalLoop=1;jettySize=auto;html=1;exitX=1;exitY=0.5;exitDx=0;exitDy=0;exitPerimeter=0;entryX=0;entryY=0.5;entryDx=0;entryDy=0;entryPerimeter=0;" edge="1" parent="1" source="CzDlGQZeDKel1ql23Tl0-31" target="CzDlGQZeDKel1ql23Tl0-39">
          <mxGeometry relative="1" as="geometry" />
        </mxCell>
        <mxCell id="CzDlGQZeDKel1ql23Tl0-38" value="&lt;font style=&quot;font-size: 20px;&quot;&gt;N&lt;/font&gt;" style="edgeLabel;html=1;align=center;verticalAlign=middle;resizable=0;points=[];" vertex="1" connectable="0" parent="CzDlGQZeDKel1ql23Tl0-36">
          <mxGeometry x="-0.1718" y="1" relative="1" as="geometry">
            <mxPoint as="offset" />
          </mxGeometry>
        </mxCell>
        <mxCell id="CzDlGQZeDKel1ql23Tl0-31" value="" style="strokeWidth=2;html=1;shape=mxgraph.flowchart.decision;whiteSpace=wrap;" vertex="1" parent="1">
          <mxGeometry x="255" y="490" width="50" height="30" as="geometry" />
        </mxCell>
        <mxCell id="CzDlGQZeDKel1ql23Tl0-34" style="edgeStyle=orthogonalEdgeStyle;rounded=0;orthogonalLoop=1;jettySize=auto;html=1;exitX=0.5;exitY=1;exitDx=0;exitDy=0;exitPerimeter=0;entryX=0.5;entryY=0;entryDx=0;entryDy=0;entryPerimeter=0;" edge="1" parent="1" source="CzDlGQZeDKel1ql23Tl0-32" target="CzDlGQZeDKel1ql23Tl0-31">
          <mxGeometry relative="1" as="geometry" />
        </mxCell>
        <mxCell id="CzDlGQZeDKel1ql23Tl0-32" value="&lt;div&gt;Deseja continuar ?&lt;/div&gt;&lt;div&gt;Sim (s) ou Não (n)&lt;/div&gt;" style="strokeWidth=2;html=1;shape=mxgraph.flowchart.display;whiteSpace=wrap;" vertex="1" parent="1">
          <mxGeometry x="220" y="410" width="120" height="60" as="geometry" />
        </mxCell>
        <mxCell id="CzDlGQZeDKel1ql23Tl0-40" style="edgeStyle=orthogonalEdgeStyle;rounded=0;orthogonalLoop=1;jettySize=auto;html=1;exitX=1;exitY=0.5;exitDx=0;exitDy=0;exitPerimeter=0;entryX=0;entryY=0.5;entryDx=0;entryDy=0;" edge="1" parent="1" source="CzDlGQZeDKel1ql23Tl0-39" target="CzDlGQZeDKel1ql23Tl0-2">
          <mxGeometry relative="1" as="geometry" />
        </mxCell>
        <mxCell id="CzDlGQZeDKel1ql23Tl0-39" value="Sistema encerrado" style="strokeWidth=2;html=1;shape=mxgraph.flowchart.display;whiteSpace=wrap;" vertex="1" parent="1">
          <mxGeometry x="370" y="475" width="100" height="60" as="geometry" />
        </mxCell>
        <mxCell id="CzDlGQZeDKel1ql23Tl0-42" style="edgeStyle=orthogonalEdgeStyle;rounded=0;orthogonalLoop=1;jettySize=auto;html=1;exitX=0;exitY=0.5;exitDx=0;exitDy=0;entryX=1;entryY=0.5;entryDx=0;entryDy=0;entryPerimeter=0;" edge="1" parent="1" source="CzDlGQZeDKel1ql23Tl0-41" target="CzDlGQZeDKel1ql23Tl0-7">
          <mxGeometry relative="1" as="geometry" />
        </mxCell>
        <mxCell id="CzDlGQZeDKel1ql23Tl0-41" value="Salvar o saldo" style="rounded=1;whiteSpace=wrap;html=1;absoluteArcSize=1;arcSize=14;strokeWidth=2;" vertex="1" parent="1">
          <mxGeometry x="310" y="90" width="100" height="40" as="geometry" />
        </mxCell>
      </root>
    </mxGraphModel>
  </diagram>
</mxfile>
